<svg xmlns="http://www.w3.org/2000/svg" width="218" height="49" viewBox="0 0 218 49"><g><g clip-path="url(#clip-772FAE1D-B89C-4627-ABE3-E47F2DA89E11)"><path d="M57.394 29.562v-3.724L71.166 12.86h-9.662v2.556h-3.888V9.313h18.742v3.724L62.699 25.94h9.994v-2.604h3.89v6.226zm31.25.412a10.31 10.31 0 0 1-4.096-.824 10.424 10.424 0 0 1-5.59-5.61 10.648 10.648 0 0 1 0-8.213 10.43 10.43 0 0 1 5.59-5.607 10.569 10.569 0 0 1 8.193 0 10.43 10.43 0 0 1 5.591 5.607 10.677 10.677 0 0 1 0 8.214 10.425 10.425 0 0 1-5.591 5.609c-1.296.55-2.69.83-4.096.821zm-.004-3.901a6.185 6.185 0 0 0 4.54-1.95 7.022 7.022 0 0 0 1.345-2.095 6.878 6.878 0 0 0 0-5.176 6.82 6.82 0 0 0-1.363-2.095 6.41 6.41 0 0 0-2.039-1.427 6.177 6.177 0 0 0-4.988 0 6.479 6.479 0 0 0-3.363 3.526 7.12 7.12 0 0 0 0 5.176 6.477 6.477 0 0 0 3.363 3.527 6.01 6.01 0 0 0 2.505.512zm22.67 3.9a10.314 10.314 0 0 1-4.084-.826 10.423 10.423 0 0 1-5.591-5.608 10.648 10.648 0 0 1 0-8.214 10.428 10.428 0 0 1 5.59-5.607 10.566 10.566 0 0 1 8.193 0 10.429 10.429 0 0 1 5.592 5.607 10.648 10.648 0 0 1 0 8.214 10.424 10.424 0 0 1-5.592 5.608 10.313 10.313 0 0 1-4.108.824zm0-3.9a6.192 6.192 0 0 0 4.545-1.95 7.02 7.02 0 0 0 1.346-2.095 6.871 6.871 0 0 0 0-5.176 6.817 6.817 0 0 0-1.365-2.095 6.401 6.401 0 0 0-2.038-1.427 6.192 6.192 0 0 0-4.994 0 6.48 6.48 0 0 0-3.365 3.526 7.115 7.115 0 0 0 0 5.176c.31.779.768 1.49 1.346 2.095a6.454 6.454 0 0 0 2.019 1.427 6.02 6.02 0 0 0 2.506.517zm12.905-16.758h4v2.325a6.664 6.664 0 0 1 2.357-2.006 7.266 7.266 0 0 1 3.367-.733c1.62 0 2.96.31 4.02.931a6.082 6.082 0 0 1 2.414 2.625 7.347 7.347 0 0 1 2.655-2.588 7.703 7.703 0 0 1 3.927-.975 9.806 9.806 0 0 1 3.59.6c.976.365 1.851.957 2.553 1.728.69.78 1.2 1.7 1.497 2.7.337 1.144.5 2.332.485 3.526v12.114h-4.161V17.668c0-1.573-.361-2.835-1.084-3.786-.723-.951-1.883-1.427-3.481-1.427-1.447 0-2.6.466-3.458 1.396-.86.931-1.29 2.328-1.293 4.19v11.52h-4.073V17.409c0-1.552-.355-2.764-1.066-3.638-.71-.873-1.838-1.312-3.386-1.315-1.494 0-2.673.482-3.535 1.445-.861.964-1.291 2.408-1.29 4.332v11.33h-4.038zm34.157-8.148c.533-.55 1.271-.85 2.035-.826a2.76 2.76 0 0 1 2.085.826c.535.55.824 1.294.801 2.062a2.837 2.837 0 0 1-.801 2.062 2.76 2.76 0 0 1-2.085.826 2.7 2.7 0 0 1-2.053-.826 2.873 2.873 0 0 1-.783-2.062 2.835 2.835 0 0 1 .801-2.062zm.02 8.146h4.071v20.249h-4.07zm7.59 0h3.964v2.805a7.652 7.652 0 0 1 6.443-3.226 9.284 9.284 0 0 1 3.46.619 7.125 7.125 0 0 1 2.618 1.764c.739.811 1.3 1.77 1.646 2.812.399 1.2.595 2.459.58 3.723v11.752h-4.087V18.12c0-1.727-.437-3.102-1.31-4.127-.872-1.024-2.156-1.536-3.852-1.538a5.562 5.562 0 0 0-2.151.414c-.65.268-1.236.67-1.72 1.18a5.428 5.428 0 0 0-1.14 1.876 6.966 6.966 0 0 0-.413 2.465v11.172h-4.038zm19.226 0h3.516V8.149a16.348 16.348 0 0 1 .392-3.919 5.358 5.358 0 0 1 1.31-2.495 5.135 5.135 0 0 1 2.469-1.331 16.2 16.2 0 0 1 3.918-.4h.972v3.751h-.675a14.513 14.513 0 0 0-2.338.149c-.5.06-.967.284-1.327.638a2.604 2.604 0 0 0-.599 1.35 14.027 14.027 0 0 0-.149 2.288v1.133h4.747v3.631h-4.756v16.618h-3.964V12.944h-3.516zm22.28 20.665a10.269 10.269 0 0 1-4.115-.824 10.527 10.527 0 0 1-5.57-5.585 10.701 10.701 0 0 1 0-8.235 10.48 10.48 0 0 1 5.57-5.607 10.615 10.615 0 0 1 8.212 0 10.43 10.43 0 0 1 5.591 5.607 10.7 10.7 0 0 1 0 8.235 10.478 10.478 0 0 1-5.59 5.585c-1.297.55-2.69.827-4.097.817zm0-3.786a6.204 6.204 0 0 0 2.554-.526 6.44 6.44 0 0 0 2.056-1.443 6.929 6.929 0 0 0 1.393-2.14 6.998 6.998 0 0 0-1.393-7.426 6.394 6.394 0 0 0-2.075-1.443 6.46 6.46 0 0 0-5.106 0 6.423 6.423 0 0 0-2.056 1.443 6.562 6.562 0 0 0-1.367 2.157 7.397 7.397 0 0 0 0 5.27 6.595 6.595 0 0 0 1.367 2.139 6.415 6.415 0 0 0 2.056 1.443c.81.354 1.687.53 2.572.519zM57.346 37.964h3.296c.436-.007.87.072 1.276.233.37.146.708.366.991.647.275.278.493.608.64.97.155.377.235.782.233 1.19a3.066 3.066 0 0 1-.87 2.15c-.283.286-.62.51-.992.661-.41.162-.847.242-1.288.233h-1.66v2.283h-1.624zm1.624 1.48v3.11h1.57c.222.002.443-.036.652-.114.189-.072.362-.18.508-.322.143-.139.254-.307.327-.493.077-.197.116-.407.114-.62a1.695 1.695 0 0 0-.114-.632 1.409 1.409 0 0 0-.327-.494 1.479 1.479 0 0 0-.508-.32 1.797 1.797 0 0 0-.653-.115zm7.255 6.773a3.198 3.198 0 0 1-1.965-2.974 3.243 3.243 0 0 1 .245-1.257c.161-.386.398-.735.696-1.027a3.247 3.247 0 0 1 1.033-.698 3.405 3.405 0 0 1 2.58 0c.387.163.74.4 1.038.698.607.603.947 1.426.943 2.284.003.43-.083.856-.25 1.252a3.322 3.322 0 0 1-.696 1.026c-.295.3-.647.538-1.036.698a3.315 3.315 0 0 1-1.295.25 3.279 3.279 0 0 1-1.293-.252zm1.973-1.4a1.69 1.69 0 0 0 .898-.91c.09-.215.135-.447.133-.681 0-.232-.044-.461-.132-.675a1.661 1.661 0 0 0-.362-.548 1.682 1.682 0 0 0-2.402 0 1.661 1.661 0 0 0-.363.548 1.763 1.763 0 0 0-.13.675 1.685 1.685 0 0 0 .492 1.223c.154.155.336.28.537.367.21.092.438.14.668.139.228 0 .453-.046.661-.137zm2.734-4.672h1.604l1.246 4.04 1.467-4.04h1.407l1.443 4.063 1.293-4.063H81l-2.088 6.198h-1.488l-1.476-4.04-1.488 4.04h-1.51zm12.11 6.077a2.958 2.958 0 0 1-1.693-1.704 3.433 3.433 0 0 1-.232-1.264c-.004-.435.08-.866.246-1.268a3.153 3.153 0 0 1 1.712-1.716c.406-.17.842-.256 1.282-.253.438-.008.873.07 1.28.232.376.152.719.377 1.008.661.288.285.514.627.664 1.004.16.405.239.839.232 1.275v.596h-4.916c.092.382.312.72.624.959.337.243.746.366 1.16.349.326.008.647-.073.93-.233.25-.146.459-.354.607-.603l1.293.76a3.657 3.657 0 0 1-1.144 1.044 3.391 3.391 0 0 1-1.708.407 3.538 3.538 0 0 1-1.344-.246zm.273-4.539a1.798 1.798 0 0 0-.627.87h3.286a1.567 1.567 0 0 0-.581-.889 1.736 1.736 0 0 0-1.045-.302 1.697 1.697 0 0 0-1.033.321zm5.326-1.538h1.555v.951c.128-.336.364-.621.67-.81a2.012 2.012 0 0 1 1.036-.258 2.293 2.293 0 0 1 1.042.242l-.571 1.562a1.106 1.106 0 0 0-.344-.156 1.744 1.744 0 0 0-.482-.063 1.389 1.389 0 0 0-.973.338c-.243.228-.365.601-.366 1.12v3.272H88.64zm6.387 6.077a2.959 2.959 0 0 1-1.694-1.704 3.433 3.433 0 0 1-.232-1.264 3.3 3.3 0 0 1 .246-1.268 3.153 3.153 0 0 1 1.713-1.716c.405-.17.84-.256 1.28-.253.439-.008.874.07 1.282.232.376.152.718.377 1.007.661.288.286.515.627.666 1.004.16.405.24.839.232 1.275v.596h-4.91c.09.382.311.72.624.959.337.243.745.366 1.16.349.325.008.645-.073.928-.233.25-.146.46-.354.608-.603l1.293.76a3.657 3.657 0 0 1-1.144 1.044 3.387 3.387 0 0 1-1.715.407 3.538 3.538 0 0 1-1.344-.246zm.274-4.539a1.799 1.799 0 0 0-.63.87h3.297a1.554 1.554 0 0 0-.583-.889 1.741 1.741 0 0 0-1.048-.302 1.706 1.706 0 0 0-1.036.321zm7.886 4.785a2.865 2.865 0 0 1-1.11-.233 2.78 2.78 0 0 1-.948-.649 3.242 3.242 0 0 1-.664-1.014 3.354 3.354 0 0 1-.253-1.339 3.45 3.45 0 0 1 .246-1.331c.152-.38.376-.727.66-1.022.27-.28.595-.5.955-.647.36-.152.747-.23 1.138-.233.38-.009.759.07 1.104.233.32.157.598.39.808.677v-3.623h1.557v9.056h-1.566v-.85c-.216.303-.5.549-.831.717a2.355 2.355 0 0 1-1.105.258zm.311-1.491a1.694 1.694 0 0 0 1.586-1.062c.088-.217.132-.45.13-.684a1.746 1.746 0 0 0-.492-1.234 1.69 1.69 0 0 0-1.224-.51 1.706 1.706 0 0 0-1.214.51 1.774 1.774 0 0 0 0 2.47c.156.158.34.284.544.372.208.09.434.137.661.138zm10.725 1.491a2.494 2.494 0 0 1-1.133-.258 2.07 2.07 0 0 1-.823-.728v.86h-1.56v-9.055h1.569v3.707c.206-.3.482-.545.805-.712.348-.18.736-.272 1.128-.265.386.002.768.081 1.124.232.357.149.68.37.949.648.282.295.506.642.659 1.021.168.424.251.876.246 1.331.007.46-.08.915-.253 1.339a3.28 3.28 0 0 1-.664 1.014 2.841 2.841 0 0 1-2.05.873zm.344-1.629a1.716 1.716 0 0 0 .91-.924 1.83 1.83 0 0 0 0-1.366 1.718 1.718 0 0 0-.91-.924 1.587 1.587 0 0 0-.664-.137 1.699 1.699 0 0 0-1.225.51 1.785 1.785 0 0 0-.493 1.233 1.754 1.754 0 0 0 .492 1.236 1.706 1.706 0 0 0 1.89.372zm2.843 3.798a2.993 2.993 0 0 1-.808-.411l.917-1.285c.105.113.229.206.367.274.144.07.303.105.464.103.25.007.494-.069.696-.216.232-.21.407-.475.51-.771l.103-.251-2.484-5.935h1.683l1.601 3.993 1.523-3.993h1.648l-2.667 6.53a6.56 6.56 0 0 1-.492 1.006c-.148.248-.339.47-.562.654a1.933 1.933 0 0 1-.684.356c-.28.076-.57.112-.859.11-.326 0-.65-.055-.956-.164zm9.697-10.668h2.701a4.84 4.84 0 0 1 1.787.32c.513.2.98.5 1.374.885.379.378.676.83.875 1.327.21.527.315 1.09.309 1.657a4.216 4.216 0 0 1-.327 1.666c-.207.5-.515.95-.903 1.325-.396.378-.861.676-1.37.877a4.5 4.5 0 0 1-1.726.324H127.1zm1.624 1.503v5.363h1.007c.397.006.79-.065 1.16-.207.33-.129.63-.322.883-.57.24-.243.43-.532.56-.85.135-.335.204-.693.201-1.054a2.98 2.98 0 0 0-.19-1.068 2.437 2.437 0 0 0-.548-.858 2.546 2.546 0 0 0-.889-.565c-.39-.14-.8-.208-1.214-.2zm6.485-1.806a.96.96 0 0 1 .72-.29.968.968 0 0 1 .737.29c.19.199.29.466.281.74a1.015 1.015 0 1 1-2.026 0c-.01-.276.095-.543.288-.74zm-.081 2.486h1.634v6.2h-1.634zm5.368 6.326a3.676 3.676 0 0 1-1.813-.396 2.578 2.578 0 0 1-1.072-1.143l1.522-.598c.255.548.82.882 1.42.84.261.017.52-.054.734-.202a.594.594 0 0 0 .25-.466.368.368 0 0 0-.113-.281.868.868 0 0 0-.316-.184 3.304 3.304 0 0 0-.464-.133 23.377 23.377 0 0 0-.559-.114 9.8 9.8 0 0 1-.784-.196 2.598 2.598 0 0 1-.71-.32 1.677 1.677 0 0 1-.509-.524 1.513 1.513 0 0 1-.195-.808c0-.26.063-.517.183-.747.125-.242.3-.453.516-.619.237-.186.506-.328.793-.419a3.111 3.111 0 0 1 3.693 1.164l-1.442.565a1.419 1.419 0 0 0-.487-.482 1.39 1.39 0 0 0-.726-.172 1.179 1.179 0 0 0-.696.166.517.517 0 0 0-.232.43c0 .2.123.34.366.419.244.079.592.17 1.042.27.26.054.52.119.785.195.254.074.496.183.72.326.216.14.398.327.533.547.145.25.216.537.207.826a1.822 1.822 0 0 1-.655 1.383 2.6 2.6 0 0 1-.828.466 3.376 3.376 0 0 1-1.163.204zm6.515.01a3.247 3.247 0 0 1-1.295-.255 3.19 3.19 0 0 1-1.031-.699 3.21 3.21 0 0 1-.926-2.287c-.005-.438.08-.872.246-1.277.161-.384.398-.732.696-1.023a3.24 3.24 0 0 1 2.307-.933c.341-.002.68.045 1.008.142a3.072 3.072 0 0 1 1.991 1.823l-1.453.588a1.683 1.683 0 0 0-.596-.788 1.599 1.599 0 0 0-.929-.282 1.639 1.639 0 0 0-.666.138c-.408.182-.73.516-.898.932a1.767 1.767 0 0 0-.13.678 1.684 1.684 0 0 0 .497 1.212c.156.158.34.285.543.376.209.092.435.139.663.137.34.009.673-.097.945-.3.265-.2.47-.471.59-.781l1.478.61a3.636 3.636 0 0 1-1.16 1.42 3.091 3.091 0 0 1-1.88.566zm6.98-.01a3.232 3.232 0 0 1-1.292-.254 3.262 3.262 0 0 1-1.724-4.23c.16-.385.397-.735.696-1.028a3.338 3.338 0 0 1 4.658 0c.298.294.534.643.696 1.029a3.234 3.234 0 0 1 0 2.51c-.166.382-.402.73-.696 1.025-.295.3-.647.537-1.035.699-.413.17-.856.253-1.302.246zm.007-1.514c.228.002.454-.045.662-.137.2-.088.382-.212.537-.367a1.736 1.736 0 0 0 .49-1.225c.002-.232-.043-.46-.131-.675a1.62 1.62 0 0 0-.359-.55 1.778 1.778 0 0 0-.537-.367 1.667 1.667 0 0 0-1.323 0 1.661 1.661 0 0 0-.896.917 1.759 1.759 0 0 0-.132.675 1.665 1.665 0 0 0 .49 1.214c.156.154.338.279.538.367.207.095.433.145.661.146zm3.303-4.812h1.671l1.52 4.178 1.532-4.178h1.634l-2.424 6.2h-1.567zm9.66 6.336a3.594 3.594 0 0 1-1.35-.247 3.044 3.044 0 0 1-1.036-.686 3.014 3.014 0 0 1-.659-1.023 3.418 3.418 0 0 1-.232-1.263c-.004-.436.08-.868.246-1.271a3.236 3.236 0 0 1 1.715-1.73 3.451 3.451 0 0 1 2.553 0 2.982 2.982 0 0 1 1.671 1.667c.16.406.24.839.232 1.275v.6h-4.89c.091.381.31.72.622.957.337.245.746.369 1.16.352.325.008.646-.073.929-.233.248-.148.456-.355.606-.604l1.292.758a3.608 3.608 0 0 1-1.144 1.047 3.362 3.362 0 0 1-1.715.398zm-.033-5.119a1.71 1.71 0 0 0-1.042.319c-.294.217-.514.52-.63.865h3.297a1.535 1.535 0 0 0-.585-.882 1.744 1.744 0 0 0-1.04-.304zm4.28-1.217h1.554v.951c.128-.336.364-.62.67-.807a1.999 1.999 0 0 1 1.032-.258 2.21 2.21 0 0 1 1.04.24l-.572 1.561a1.104 1.104 0 0 0-.343-.154 1.7 1.7 0 0 0-.48-.062 1.368 1.368 0 0 0-.97.337c-.242.225-.364.598-.365 1.12v3.272h-1.566zm7.451 5.972a4.29 4.29 0 0 1-2.268-2.29 4.364 4.364 0 0 1 0-3.352 4.289 4.289 0 0 1 2.268-2.29 4.334 4.334 0 0 1 3.353 0c.51.22.973.535 1.364.931.387.394.698.858.916 1.366.227.53.342 1.1.339 1.676a4.24 4.24 0 0 1-.332 1.676 4.284 4.284 0 0 1-.93 1.366 4.318 4.318 0 0 1-1.369.93 4.201 4.201 0 0 1-1.668.327 4.163 4.163 0 0 1-1.673-.34zm1.668-1.257a2.603 2.603 0 0 0 1.906-.798c.242-.249.433-.543.561-.866a2.835 2.835 0 0 0 0-2.095 2.67 2.67 0 0 0-1.409-1.445 2.59 2.59 0 0 0-1.053-.219 2.545 2.545 0 0 0-1.047.219 2.648 2.648 0 0 0-1.393 1.445 2.81 2.81 0 0 0-.2 1.057 2.768 2.768 0 0 0 .755 1.91 2.582 2.582 0 0 0 1.89.8zm5.243-4.717h1.554v.953c.127-.336.362-.62.667-.809a2.007 2.007 0 0 1 1.035-.259c.194 0 .388.022.576.068.16.04.316.098.463.173l-.572 1.564a1.12 1.12 0 0 0-.342-.154 1.7 1.7 0 0 0-.48-.063 1.368 1.368 0 0 0-.97.338c-.245.233-.366.599-.366 1.121v3.278h-1.565zm7.501 6.284a2.886 2.886 0 0 1-1.111-.233 2.842 2.842 0 0 1-.955-.627 3.19 3.19 0 0 1-.665-1.01 3.332 3.332 0 0 1-.253-1.326 3.446 3.446 0 0 1 .246-1.331c.151-.38.376-.725.66-1.018.272-.277.598-.496.958-.642.36-.152.748-.231 1.139-.233.387-.006.77.08 1.118.252.323.163.6.402.809.698v-.815h1.583v5.74c.007.427-.072.851-.233 1.247a2.936 2.936 0 0 1-.67.98 3.17 3.17 0 0 1-1.027.65c-.417.159-.86.238-1.306.232a4.643 4.643 0 0 1-1.79-.305 3.293 3.293 0 0 1-1.248-.93l1.306-1.022c.19.25.427.462.698.621.308.157.651.232.997.217.238.004.474-.037.697-.122.2-.075.384-.19.54-.337.154-.147.275-.324.355-.521.086-.214.128-.443.126-.673v-.466a2.323 2.323 0 0 1-.837.717c-.35.18-.74.27-1.132.263zm.307-1.47a1.687 1.687 0 0 0 1.223-.511c.154-.159.277-.345.362-.55a1.76 1.76 0 0 0 .13-.684 1.736 1.736 0 0 0-.492-1.233 1.625 1.625 0 0 0-.543-.373 1.649 1.649 0 0 0-.68-.14 1.72 1.72 0 0 0-.671.133c-.204.085-.389.21-.543.368-.156.161-.28.35-.367.556a1.75 1.75 0 0 0-.137.698 1.72 1.72 0 0 0 .504 1.23c.155.158.34.286.543.374.213.093.443.14.675.14zM36.575 9.314a.65.65 0 0 1 .65.652v8.774a.65.65 0 0 1-.65.652H33.99a.65.65 0 0 1-.653-.65v-2.704L5.788 42.435h5.668c.36 0 .652.293.652.654v2.59a.653.653 0 0 1-.652.654H.652A.653.653 0 0 1 0 45.68v-3.232l30.534-29.242h-3.096a.653.653 0 0 1-.652-.654V9.958a.65.65 0 0 1 .652-.645zM3.888 18.855a.653.653 0 0 1-.653.655H.652A.653.653 0 0 1 0 18.855V9.958a.65.65 0 0 1 .652-.645h20.594a.651.651 0 0 1 .652.645v2.492a.65.65 0 0 1-.652.65H3.888zm29.45 17.663c0-.36.291-.653.652-.653h2.59a.65.65 0 0 1 .647.653v9.164a.65.65 0 0 1-.65.651H17.63a.653.653 0 0 1-.643-.663v-2.59c0-.362.292-.655.652-.655h15.698z"/></g></g></svg>